<svg xmlns="http://www.w3.org/2000/svg" viewBox="-245.8 375.743 98.553 89.357"><path d="M-193.3 465.1c-1.3 0-2.7-.4-3.9-1.2-1.6-1-2.6-2.6-3-4.4-.4-1.8 0-3.7 1-5.3l7.3-10.9-6.4-10.2-9.3-14.6 7.1-10.7-6.5-1.5-6.5 9.8c-2.1 3.2-6.5 4.1-9.7 2-1.6-1-2.6-2.6-3-4.4-.4-1.8 0-3.7 1-5.3l9.2-13.9c1.6-2.3 4.5-3.5 7.3-2.9l16 3.6c.9.2 7.1 3.5 18.5 9.8l1.9 1-13.6 20.5 8.3 13.1c1.5 2.4 1.4 5.5-.3 7.9-.2.3-.3.6-.5.9l-9.1 13.6c-1.3 2-3.5 3.1-5.8 3.1zm17.6-65.4c-2.3 0-4.6-.6-6.6-2-2.7-1.8-4.5-4.5-5.1-7.6s0-6.3 1.8-9c3.7-5.5 11.1-7 16.6-3.4 2.7 1.8 4.5 4.5 5.1 7.6.6 3.1 0 6.3-1.8 9-2.3 3.5-6.1 5.4-10 5.4z"/><path d="M-163.6 422.5c-.5 0-1-.1-1.5-.2l-13.9-3.1 8.3-12.3 4.4 1 6.4-9.6c1-1.5 2.6-2.6 4.4-2.9 1.8-.4 3.6 0 5.2 1 1.5 1 2.6 2.6 2.9 4.4.4 1.8 0 3.6-1 5.2l-8.9 13.4c-.9 1.3-2.3 2.3-3.8 2.8-.1 0-.1 0-.2.1h-.2c-.8.1-1.5.2-2.1.2zm-50.3 24.4c-.9 0-1.9-.2-2.8-.6l-14.3-3.2c-3.7-.8-6-4.5-5.2-8.3.4-1.8 1.5-3.3 3.1-4.3s3.4-1.3 5.2-.9l11 2.5 6.2-9.3c.1-.2.2-.3.4-.5l1.8-2.2 1.5 2.3 6.4 10.1-7.6 11.4c-1.3 1.9-3.5 3-5.7 3zm-31.9-68.3h55.7v4h-55.7zm0 10h27.1v4h-27.1zm0 10h19.5v4h-19.5zm0 10h15.7v4h-15.7zm0 10h9.8v4h-9.8zm0 10h5.8v4h-5.8zm0 10h5.8v4h-5.8zm0 10h23.8v4h-23.8zm0 10h38.8v4h-38.8z"/></svg>
