<svg xmlns="http://www.w3.org/2000/svg" viewBox="10.904 14 81.184 69.902"><path d="M92.046 73.793c-.009-.144-.922-14.527-5.518-28.488C81.287 29.383 73.733 21.31 64.076 21.31c-.399 0-.804.014-1.214.043-2.627.186-4.472 1.034-5.484 2.521-1.769 2.599-.574 6.392.386 9.439.443 1.406.901 2.86.798 3.489a89.126 89.126 0 0 1-.411 2.249l-2.655-2.772V14h-8v22.28l-2.656 2.773-.015-.077c-.16-.843-.298-1.564-.397-2.174-.103-.628.354-2.082.798-3.487.96-3.048 2.155-6.842.387-9.441-1.012-1.488-2.857-2.336-5.483-2.521-.41-.029-.814-.043-1.214-.043-9.657 0-17.211 8.073-22.452 23.995-4.596 13.96-5.509 28.344-5.518 28.488-.545 9.021 4.177 9.35 13.582 10.005l.969.068c.34.024.686.036 1.035.036 4.9 0 10.06-2.359 13.801-6.311 3.382-3.572 7.287-10.136 6.686-21.121a127.999 127.999 0 0 0-.646-7.653l5.125-5.221 5.124 5.22a127.21 127.21 0 0 0-.646 7.654c-.603 10.984 3.302 17.548 6.684 21.12 3.741 3.952 8.9 6.311 13.801 6.311.35 0 .695-.012 1.035-.036l.968-.068c9.403-.653 14.124-.982 13.582-10.004zM45.021 56.581c.562 10.274-3.03 16.35-6.142 19.636-3.371 3.56-7.987 5.686-12.349 5.686-.302 0-.601-.01-.895-.031l-.971-.068c-9.576-.667-12.149-.846-11.725-7.89.009-.141.906-14.266 5.421-27.983 4.941-15.01 11.856-22.621 20.553-22.621.353 0 .711.013 1.073.038 1.984.14 3.32.696 3.971 1.652 1.224 1.797.189 5.078-.641 7.714-.584 1.851-1.044 3.312-.865 4.411.103.624.243 1.362.407 2.226.088.461.182.954.279 1.478l-8.31 8.676c-.13.135-.232.286-.339.434a2.26 2.26 0 0 1-.488-.387c-.659-.707-1.762-2.943.052-9.316l2.575-.756a1.25 1.25 0 1 0-.703-2.399l-.948.279c.153-.434.308-.866.483-1.328a2.001 2.001 0 0 0-1.157-2.582 2.002 2.002 0 0 0-2.581 1.158c-.124.326-.235.641-.352.959l-.767-1.006a1.25 1.25 0 1 0-1.988 1.517l1.797 2.354a38.712 38.712 0 0 0-.873 3.382l-4.705-3.481a1.25 1.25 0 1 0-1.486 2.01l.819.605-1.479 1.077a1.25 1.25 0 1 0 1.471 2.022l2.114-1.539 2.845 2.105c-.147 1.681-.059 3.146.258 4.409l-7.019 1.335a1.248 1.248 0 0 0-.994 1.462 1.248 1.248 0 0 0 1.461.995l7.558-1.438c.217.33.45.646.719.93.604.64 2 1.807 2.995 2.283.251.12.531.438.137.839-.478.485-.677.648-1.054 1.119l-3.104-.961a1.25 1.25 0 1 0-.74 2.387l2.284.708c-1.369 2.055-2.557 4.426-3.259 7.069l-6.633-.909a1.249 1.249 0 1 0-.34 2.476l3.653.501-3.616.388a1.25 1.25 0 1 0 .266 2.484l5.088-.544-3.938 2.778a1.25 1.25 0 1 0 1.441 2.042l3.486-2.46c.037.41.085.823.149 1.241l.001.006-.71 2.135a1.249 1.249 0 0 0 1.186 1.644 1.25 1.25 0 0 0 1.186-.855l.414-1.24.095-.008.57 1.342a1.249 1.249 0 1 0 2.301-.977l-1.083-2.549c-.004-.035 0-.07-.006-.105-1.351-8.066 7.849-17.528 8.634-18.349l4.058-4.133c.182 1.793.34 3.757.46 5.923zm33.301 25.223l-.97.068c-.294.021-.593.031-.895.031-4.361 0-8.978-2.125-12.349-5.686-3.111-3.287-6.702-9.362-6.14-19.636.118-2.166.277-4.13.458-5.921l4.058 4.134c.785.82 9.984 10.282 8.634 18.349-.006.035-.002.07-.006.105l-1.083 2.549a1.249 1.249 0 1 0 2.301.977l.57-1.342.095.008.414 1.24a1.25 1.25 0 0 0 2.372-.789l-.71-2.135.001-.006c.064-.418.112-.831.149-1.241l3.486 2.46a1.25 1.25 0 1 0 1.441-2.042l-3.938-2.778 5.088.544a1.25 1.25 0 0 0 .266-2.484l-3.616-.388 3.653-.501a1.249 1.249 0 1 0-.34-2.476l-6.633.909c-.702-2.644-1.89-5.015-3.259-7.069l2.284-.708a1.25 1.25 0 1 0-.74-2.387l-3.104.961c-.377-.471-.576-.634-1.054-1.119-.395-.401-.114-.719.137-.839.995-.477 2.392-1.644 2.995-2.283.269-.284.502-.6.719-.93l7.558 1.438a1.25 1.25 0 0 0 .467-2.457l-7.019-1.335c.316-1.264.405-2.729.258-4.409l2.845-2.105 2.114 1.539a1.25 1.25 0 0 0 1.471-2.022l-1.479-1.077.819-.605a1.25 1.25 0 0 0-1.486-2.01l-4.705 3.481a38.804 38.804 0 0 0-.873-3.382l1.797-2.354a1.252 1.252 0 0 0-1.988-1.517l-.767 1.006c-.116-.318-.228-.633-.352-.959a2.003 2.003 0 0 0-2.581-1.158 2.002 2.002 0 0 0-1.157 2.582c.176.462.33.895.483 1.328l-.948-.279a1.25 1.25 0 1 0-.703 2.399l2.575.756c1.813 6.373.711 8.609.052 9.316a2.375 2.375 0 0 1-.488.387c-.106-.147-.209-.299-.339-.434l-8.311-8.677c.097-.518.188-1.004.275-1.46.166-.871.308-1.615.41-2.243.18-1.098-.281-2.561-.864-4.413-.83-2.635-1.864-5.916-.641-7.712.65-.956 1.987-1.512 3.972-1.652.362-.025.721-.038 1.073-.038 8.696 0 15.611 7.611 20.553 22.621 4.515 13.717 5.412 27.842 5.421 27.983.425 7.041-2.149 7.22-11.726 7.887z"/></svg>
