<svg xmlns="http://www.w3.org/2000/svg" viewBox="56 114.965 400.03 282.165" fill="#fa71c6"><path d="M255.78 397.11H90.52c-17.18 0-30.21-9.84-33.77-25.41a37 37 0 0 1-.71-8.17Q56 256.24 56 149c0-20.57 13.78-34 34.93-34q165.26-.07 330.53 0C442 114.92 456 128.53 456 148.5q.06 107.49 0 215c0 20.13-14 33.6-34.92 33.61q-82.66.04-165.3 0zm56.15-118.62a14.12 14.12 0 0 0 2.16 3.48q28.76 28 57.65 55.8c5.07 4.9 10.05 9.9 15.25 14.67a15.65 15.65 0 0 0 16.57 3.46 15.16 15.16 0 0 0 10.58-12.38c1-5.95-1.51-10.59-5.79-14.72q-35.72-34.41-71.35-68.93c-1.21-1.17-2.36-2.4-4.09-4.17a52.77 52.77 0 0 0 4.28-3.33q35.1-34.09 70.14-68.23c.95-.92 1.93-1.81 2.81-2.79 8.34-9.26 3.67-23.13-8.7-25.81-6.49-1.41-11.55 1.07-16.07 5.45q-59 57.22-118.13 114.36c-8.14 7.88-14.51 7.91-22.59.08l-116.8-113.17a49.31 49.31 0 0 0-3.88-3.59c-9.33-7.27-23-2.7-25.85 8.58-1.61 6.45.9 11.49 5.53 16q35.73 34.7 71.36 69.5c1.12 1.1 2.19 2.25 3.43 3.53-1.34 1.36-2.43 2.52-3.58 3.63q-35.63 34.49-71.3 68.95c-4.17 4-6.65 8.57-5.8 14.32a15.11 15.11 0 0 0 10.72 12.75c6.74 2.27 12.58.42 17.56-4.41Q162 316.69 198 281.92c1.13-1.09 2.31-2.13 3.21-3 9.07 8.6 17.87 16.85 26.55 25.19 17.28 16.6 39.48 16.55 56.68 0 8.62-8.33 17.56-16.4 27.49-25.62z"/></svg>
