<svg xmlns="http://www.w3.org/2000/svg" viewBox="0 9.985 100 80.031"><path d="M90.035 50c0-10.243-3.908-20.481-11.719-28.292-15.626-15.631-40.968-15.631-56.589 0l14.146 14.146C48.57 23.157 70.027 32.308 70.027 49.99H59.984l20.008 25.02L100 50h-9.965zM79.992 66.999l-9.569-11.997h4.606c-.194-5.002 1.638-13.72-7.327-22.685-8.544-8.548-21.737-9.613-31.438-3.204l-7.146-7.151c13.696-10.229 33.22-9.154 45.662 3.282 6.823 6.819 10.821 15.734 10.253 29.758h4.582l-9.623 11.997zM29.973 50.01h10.043L20.008 24.99 0 50h9.965c0 10.243 3.908 20.481 11.719 28.292 15.626 15.632 40.968 15.632 56.589 0L64.127 64.146C51.43 76.843 29.973 67.692 29.973 50.01zM25.22 74.756c-6.824-6.819-10.822-15.734-10.253-29.758h-4.582l9.623-11.997 9.569 11.997h-4.606c.194 5.002-1.638 13.72 7.327 22.685 8.543 8.548 21.737 9.613 31.438 3.204l7.146 7.151c-13.696 10.229-33.22 9.154-45.662-3.282z"/></svg>
